<svg width="190" height="33" viewBox="0 0 190 33" fill="none" xmlns="http://www.w3.org/2000/svg">
  <path d="M86.3846 12.0367C88.3493 9.50592 90.9801 8.54019 93.6441 8.54019C97.4072 8.54019 100.171 11.1376 100.171 15.2335V26.2561H96.1749V15.9329C96.1749 13.6018 94.3768 12.3031 92.3454 12.3031C90.0143 12.3031 87.4169 13.6684 86.3846 16.8986V26.2561H82.4551V3.17878H86.3846V12.0367Z" fill="white" />
  <path d="M117.155 23.1926C115.257 25.7566 112.493 26.6226 109.929 26.6226C106.1 26.6226 103.436 24.0251 103.436 19.929V8.90664H107.398V19.4297C107.398 21.6941 109.197 22.9594 111.128 22.9594C113.459 22.9594 116.156 21.5275 117.189 18.2974V8.90664H121.118V26.2562H117.322L117.155 23.1926Z" fill="white" />
  <path d="M128.609 12.0365C130.574 9.47247 133.205 8.53994 135.869 8.53994C139.632 8.53994 142.396 11.1374 142.396 15.2333V26.2559H138.399V15.7662C138.399 13.5018 136.601 12.2363 134.637 12.2363C132.272 12.2363 129.741 13.6682 128.609 16.8983V26.2559H124.68V8.90612H128.443L128.609 12.0365Z" fill="white" />
  <path d="M147.226 3.1787H151.155V8.90629H154.286V12.7692H151.155V18.8966C151.155 21.6938 151.821 22.5597 154.086 22.5597C154.352 22.5597 155.151 22.4931 155.418 22.4599V26.3226C154.785 26.4226 153.819 26.4558 153.154 26.4558C148.924 26.4558 147.226 23.9584 147.226 19.0297V12.7692H144.795V8.90629H147.226V3.1787Z" fill="white" />
  <path d="M161.67 15.9997H172.193C171.96 13.3689 169.962 11.9704 166.798 11.9704C164.168 11.9704 162.236 13.4689 161.67 15.9997ZM172.293 20.7283C173.259 21.2945 174.224 21.8607 175.19 22.3602C173.691 25.6236 170.228 26.9557 166.932 26.9557C161.337 26.9557 157.674 23.2592 157.674 17.7646C157.674 12.0036 161.304 8.40723 166.798 8.40723C171.96 8.40723 175.823 11.8038 175.923 16.7656C175.823 17.6982 175.623 18.5639 175.523 18.8635L161.57 18.8303C162.103 21.6275 164.101 23.4257 166.898 23.4257C168.53 23.4257 171.227 22.9596 172.293 20.7283Z" fill="white" />
  <path d="M190 12.4698C187.203 12.4698 182.475 14.2014 182.475 17.3982V26.2563H178.545V8.90661H181.942C181.942 9.60596 182.241 11.8038 182.241 12.4698C184.106 10.0721 187.536 8.50704 190 8.50704V12.4698Z" fill="white" />
  <path d="M27.543 8.74022H32.6046V26.2563H27.543V8.74022Z" fill="#DB00F9" />
  <path d="M41.429 11.2376C43.1273 9.23959 45.5249 8.34045 47.8893 8.34045C51.7523 8.34045 54.2165 11.0047 54.2165 15.1006V26.2563H49.0881V15.8331C49.0881 13.9684 47.8227 13.0693 46.2577 13.0693C44.3262 13.0693 41.9284 14.5678 41.3956 17.4648V26.2563H36.334V8.74003H41.0626L41.429 11.2376Z" fill="#DB00F9" />
  <path d="M62.6107 15.9665L71.6018 8.74025H77.8957L69.2042 15.7001C71.1022 19.3965 73.8994 21.8941 75.5645 21.8941C76.0975 21.8941 76.5302 21.8941 76.8966 21.7941V26.2564C75.8975 26.423 75.0651 26.5229 74.3658 26.5229C70.9025 26.5229 68.7712 23.759 65.7408 18.3975L62.6107 20.9616V26.2564H57.5156V2.94607H62.6107V15.9665Z" fill="#DB00F9" />
  <path d="M12.567 -0.000190735C5.64507 -0.000190735 0.033778 5.6111 0.033778 12.533C0.033778 12.7911 0.0441421 13.0466 0.0594955 13.3009C-0.0450997 15.7088 0.0184251 18.1316 0.0435663 20.5507V22.7666L2.66439 19.9832L2.66151 19.9838C3.32747 19.2927 3.99323 18.6014 4.65477 17.9061C4.98468 17.5591 5.55851 17.0475 5.64986 16.7569C5.04283 15.6632 4.69584 14.4051 4.69584 13.0658C4.69584 8.85796 8.10699 5.44682 12.3148 5.44682C16.5226 5.44682 19.9337 8.85796 19.9337 13.0658C19.9337 17.2735 16.5226 20.6847 12.3148 20.6847C11.0372 20.6847 9.83578 20.3659 8.77851 19.8097C8.7455 19.7978 8.71133 19.7815 8.67602 19.7587C8.62881 19.728 8.58409 19.7028 8.53938 19.6771C8.51059 19.6606 8.48084 19.6456 8.45224 19.6288C7.8621 19.3203 7.49803 19.434 7.32166 19.5447C7.27886 19.5791 7.23626 19.6119 7.19211 19.6539C7.12917 19.7136 7.07121 19.7783 7.01478 19.8449L5.98495 20.9536C4.68797 22.2569 3.38927 23.5585 2.09478 24.8645L2.09344 24.8622L0.503017 26.4397C0.351785 26.5785 0.202473 26.7199 0.0744641 26.8646L0.033778 26.9049V26.8612L0 26.8948V32.3372L6.41696 25.4888C7.33663 24.4444 8.19143 24.6334 9.19266 24.9449C11.7517 25.7408 14.3169 25.589 16.7059 24.5438C17.6852 24.1152 18.578 23.6157 19.3848 23.047C22.8238 20.8123 25.1001 16.9396 25.1001 12.533C25.1001 5.6111 19.4889 -0.000190735 12.567 -0.000190735Z" fill="#DB00F9" />
  <path d="M12.3514 17.6193C14.8701 17.6193 16.9117 15.5775 16.9117 13.0589C16.9117 10.5402 14.8701 8.49857 12.3514 8.49857C9.83264 8.49857 7.79102 10.5402 7.79102 13.0589C7.79102 15.5775 9.83264 17.6193 12.3514 17.6193Z" fill="#DB00F9" />
  <path d="M30.0687 7.12207C32.0332 7.12207 33.6257 5.52954 33.6257 3.56507C33.6257 1.6006 32.0332 0.00806856 30.0687 0.00806856C28.1043 0.00806856 26.5117 1.6006 26.5117 3.56507C26.5117 5.52954 28.1043 7.12207 30.0687 7.12207Z" fill="#DB00F9" />
</svg>
